<svg xmlns="http://www.w3.org/2000/svg" version="1.1" xmlns:xlink="http://www.w3.org/1999/xlink" xmlns:svgjs="http://svgjs.com/svgjs" width="800" height="560" preserveAspectRatio="none" viewBox="0 0 800 560"><g mask="url(&quot;#SvgjsMask1058&quot;)" fill="none"><rect width="800" height="560" x="0" y="0" fill="rgba(17, 24, 39, 1)"></rect><path d="M0,278.888C61.989,290.535,125.215,307.733,185.161,288.115C253.669,265.695,336.978,232.061,355.749,162.465C375.055,90.883,295.503,31.472,273.472,-39.319C256.065,-95.25,265.989,-155.603,240.368,-208.28C208.873,-273.033,181.035,-362.489,110.145,-375.119C37.177,-388.119,-8.752,-291.901,-77.801,-264.966C-138.009,-241.479,-212.688,-267.9,-264.327,-229.041C-319.182,-187.762,-364.156,-120.472,-360.946,-51.896C-357.764,16.083,-290.021,59.631,-248.299,113.394C-216.457,154.425,-188.478,197.226,-145.261,226.031C-101.499,255.199,-51.688,269.176,0,278.888" fill="#0f1522"></path><path d="M800 834.6859999999999C869.179 851.014 936.984 900.6089999999999 1004.3779999999999 878.018 1073.397 854.8820000000001 1116.783 784.696 1146.871 718.4110000000001 1176.9180000000001 652.217 1194.356 575.87 1173.08 506.359 1152.783 440.045 1092.603 395.48699999999997 1035.838 355.64599999999996 988.7719999999999 322.61199999999997 929.0509999999999 322.44100000000003 876.808 298.418 812.342 268.774 761.699 177.719 693.817 198.37400000000002 625.691 219.103 643.876 330.502 596.535 383.697 548.1320000000001 438.086 442.428 436.001 420.542 505.442 399.32 572.776 453.561 642.859 497.415 698.186 535.423 746.138 593.684 769.086 649.4590000000001 794.2470000000001 697.801 816.0550000000001 748.385 822.5029999999999 800 834.6859999999999" fill="#131b2d"></path></g><defs><mask id="SvgjsMask1058"><rect width="800" height="560" fill="#ffffff"></rect></mask></defs></svg>