<svg xmlns="http://www.w3.org/2000/svg" version="1.1" xmlns:xlink="http://www.w3.org/1999/xlink" xmlns:svgjs="http://svgjs.com/svgjs" width="1440" height="560" preserveAspectRatio="none" viewBox="0 0 1440 560"><g mask="url(&quot;#SvgjsMask1254&quot;)" fill="none"><rect width="1440" height="560" x="0" y="0" fill="url(#SvgjsLinearGradient1255)"></rect><path d="M1440 0L1156.66 0L1440 22.14z" fill="rgba(255, 255, 255, .1)"></path><path d="M1156.66 0L1440 22.14L1440 268.42L1025.7 0z" fill="rgba(255, 255, 255, .075)"></path><path d="M1025.7 0L1440 268.42L1440 314.25L743.51 0z" fill="rgba(255, 255, 255, .05)"></path><path d="M743.51 0L1440 314.25L1440 466.34000000000003L225.17999999999995 0z" fill="rgba(255, 255, 255, .025)"></path><path d="M0 560L569.83 560L0 343.1z" fill="rgba(0, 0, 0, .1)"></path><path d="M0 343.1L569.83 560L586.0500000000001 560L0 250.51000000000002z" fill="rgba(0, 0, 0, .075)"></path><path d="M0 250.51L586.0500000000001 560L733.7600000000001 560L0 125.71999999999998z" fill="rgba(0, 0, 0, .05)"></path><path d="M0 125.71999999999997L733.7600000000001 560L981.9100000000001 560L0 68.02999999999997z" fill="rgba(0, 0, 0, .025)"></path></g><defs><mask id="SvgjsMask1254"><rect width="1440" height="560" fill="#ffffff"></rect></mask><linearGradient x1="15.28%" y1="-39.29%" x2="84.72%" y2="139.29%" gradientUnits="userSpaceOnUse" id="SvgjsLinearGradient1255"><stop stop-color="#0e2a47" offset="0"></stop><stop stop-color="rgba(17, 24, 39, 1)" offset="0.56"></stop></linearGradient></defs></svg>